<svg width="28" height="28" viewBox="0 0 28 28" fill="none" xmlns="http://www.w3.org/2000/svg">
<path d="M22 11.6814V13.4512C21.997 13.7872 21.8707 14.1109 21.6442 14.3629C21.4177 14.6149 21.1063 14.7783 20.7669 14.8232V20.2561C20.7669 20.9838 20.4724 21.6817 19.948 22.1963C19.4236 22.7109 18.7124 23 17.9709 23H9.02352C8.28196 23 7.57077 22.7109 7.04641 22.1963C6.52205 21.6817 6.22747 20.9838 6.22747 20.2561V14.8232C5.88916 14.7771 5.57902 14.6131 5.35367 14.3613C5.12833 14.1094 5.0028 13.7864 5 13.4512V11.6814C5.00074 11.3112 5.15092 10.9564 5.41766 10.6946C5.6844 10.4329 6.04596 10.2855 6.42319 10.2848H8.39441C8.23426 9.70978 8.26573 9.09961 8.48423 8.54345C8.70272 7.98728 9.09678 7.51429 9.60879 7.19362C10.1208 6.87296 10.7239 6.72143 11.33 6.76119C11.936 6.80096 12.5132 7.02993 12.9771 7.41463C13.2176 5.9878 14.4255 5 16.0137 5C17.7137 5 19.0893 6.44604 19.0893 8.22683C19.0909 8.96921 18.8455 9.69181 18.3903 10.2848H20.574C20.9517 10.2848 21.314 10.4318 21.5814 10.6937C21.8487 10.9555 21.9993 11.3107 22 11.6814ZM20.8816 13.4512V11.6814C20.8808 11.6023 20.8485 11.5266 20.7915 11.4707C20.7345 11.4148 20.6574 11.383 20.5768 11.3823H14.0564V13.753H20.574C20.6556 13.753 20.7338 13.7212 20.7915 13.6646C20.8492 13.608 20.8816 13.5313 20.8816 13.4512ZM19.6485 20.2561V14.8506H14.0564V21.9024H17.9709C18.4158 21.9024 18.8425 21.729 19.1572 21.4202C19.4718 21.1115 19.6485 20.6927 19.6485 20.2561ZM9.02352 21.9024H12.938V14.8506H7.34589V20.2561C7.34589 20.6927 7.52264 21.1115 7.83726 21.4202C8.15187 21.729 8.57858 21.9024 9.02352 21.9024ZM6.11283 11.6814V13.4512C6.11356 13.5303 6.1459 13.606 6.2029 13.6619C6.2599 13.7178 6.33699 13.7496 6.4176 13.7503H12.938V11.3823H6.42039C6.33931 11.3823 6.26149 11.4137 6.20389 11.4697C6.14629 11.5258 6.11356 11.6018 6.11283 11.6814ZM11.1457 7.83994C10.8516 7.8393 10.5621 7.91214 10.3045 8.05158C10.0469 8.19103 9.82977 8.3925 9.67344 8.63704C9.5171 8.88157 9.42675 9.16113 9.41088 9.44938C9.39501 9.73764 9.45415 10.0251 9.58273 10.2848H12.938V9.50549C12.9014 9.06049 12.6978 8.64464 12.3667 8.33848C12.0356 8.03231 11.6006 7.8576 11.1457 7.84817V7.83994ZM17.9709 8.2378C17.9709 7.06341 17.0873 6.10854 16.0137 6.10854C14.8561 6.10854 14.0564 6.87683 14.0564 7.97439V10.2957H16.5868C17.0059 10.135 17.3639 9.85085 17.6117 9.48236C17.8595 9.11386 17.985 8.6791 17.9709 8.2378Z" fill="#31363B"/>
</svg>
