<svg width="128" height="25" fill="none">
  <path d="M128 7.076h-12.641v12.642H128V7.076z" fill="#15b5ee" />
  <path
    d="M20.14 1.009h-2.047v2.047h2.047V1.009zM15.956 17.93H18.1V8.88h-1.49V7.067h3.53v10.86h2.137v1.781h-6.32v-1.777zM36.846 19.278c0 1.572-.412 2.789-1.157 3.68-1.069 1.304-2.849 1.838-4.807 1.838-.927 0-3.974 0-5.906-2.754L26.5 21.03c1.285 1.645 3.105 2.016 4.385 2.016 1.246 0 2.432-.327 3.175-1.247.474-.593.741-1.37.741-2.432v-1.612c-1.038 1.068-2.284 1.87-4.213 1.87-3.29 0-5.994-2.611-5.994-6.292 0-3.412 2.492-6.498 6.26-6.498a5.755 5.755 0 014.036 1.632v-1.4h3.347v1.809h-1.392v10.402zm-10.114-5.976c0 2.67 1.752 4.54 4.185 4.54 1.602 0 2.878-.772 3.887-1.84v-5.934a5.562 5.562 0 00-3.769-1.425c-2.587 0-4.303 2.018-4.303 4.659zM40.515 1.942V.16h3.499v9.195c1.216-1.395 2.877-2.523 4.689-2.523 1.483 0 2.551.505 3.204 1.37.564.744.832 1.752.832 2.909v6.825h2.047v1.782h-6.083v-1.782h1.987v-6.414c0-.921-.177-1.543-.563-1.989-.411-.534-1.097-.801-1.959-.801-1.573 0-3.027.98-4.154 2.225v6.974h1.988v1.781h-6.053v-1.781h2.017V1.94h-1.45zM57.54 18.465c-.237-.475-.326-1.069-.326-1.751V8.88h-1.483V7.067h1.483V3.213h2.019v3.854h3.886v1.809h-3.886v7.537c-.02.339.052.677.207.98.238.445.712.651 1.484.651.741 0 1.662-.354 2.373-.771v1.798c-.652.356-1.81.877-2.967.877-1.334 0-2.284-.504-2.79-1.483zM68.107 18.405l-.623 1.336h-1.276v-17.8h-1.451V.162h3.497v8.57c1.069-1.04 2.314-1.9 4.333-1.9 3.288 0 6.03 2.64 6.03 6.558 0 3.62-2.613 6.558-6.351 6.558a6.49 6.49 0 01-4.159-1.542zm8.397-4.985c0-2.878-1.81-4.806-4.272-4.806-1.632 0-2.938.83-3.974 1.898v6.232c.98.772 2.255 1.424 3.887 1.424 2.431-.002 4.36-1.9 4.36-4.748zM80.81 13.39c0-3.562 2.581-6.558 6.498-6.558 3.916 0 6.498 2.969 6.498 6.559 0 3.59-2.58 6.557-6.498 6.557-3.947 0-6.498-2.937-6.498-6.557zm10.86 0c0-2.79-1.782-4.776-4.362-4.776s-4.362 1.987-4.362 4.777c0 2.819 1.782 4.777 4.362 4.777s4.362-1.958 4.362-4.777zM94.778 17.93h1.72l4.036-4.628-3.797-4.422h-1.751V7.067h5.52v1.69h-1.604l2.76 3.532 2.789-3.531h-1.665V7.067h5.489v1.809h-1.747l-3.768 4.361 4.066 4.69h1.691v1.781h-5.638v-1.66h1.75l-3.026-3.827-3.057 3.828h1.84v1.662h-5.608v-1.78zM.011 19.108v-3.289h1.746v2.056c1.49.409 3.026.622 4.571.635 3.27 0 5.11-1.233 5.11-3.46C11.438 9.622.392 11.844.392 5.047.392 1.999 2.646 0 6.962 0c1.968 0 4.064.411 5.65.89v3.279h-1.775V2.094a16.135 16.135 0 00-3.778-.477c-3.396 0-4.825 1.43-4.825 3.302 0 5.142 11.079 3.078 11.079 10.063 0 3.459-2.763 5.11-6.889 5.11a23.604 23.604 0 01-6.413-.984z"
    fill="#4A5058"
  />
</svg>
