<svg width="22" height="22" viewBox="0 0 16 16" fill="none">
  <path
    d="M8 .4C3.808.4.4 3.808.4 8s3.408 7.6 7.6 7.6 7.6-3.408 7.6-7.6S12.192.4 8 .4zm0 13.792c-3.408 0-6.192-2.784-6.192-6.192 0-3.408 2.784-6.192 6.192-6.192 3.408 0 6.192 2.784 6.192 6.192 0 3.408-2.784 6.192-6.192 6.192z"
    fill="#fff"
  />
  <path
    d="M8 9.008c-1.792 0-2.768 1.2-2.816 1.248a.703.703 0 00.096.976c.304.24.736.208.992-.096.032-.032.624-.72 1.728-.72s1.696.704 1.712.72a.68.68 0 00.544.256.67.67 0 00.448-.16.71.71 0 00.112-.992C10.768 10.208 9.792 9.008 8 9.008zM5.44 7.264a.992.992 0 100-1.984.992.992 0 000 1.984zM10.56 7.264a.992.992 0 100-1.984.992.992 0 000 1.984z"
    fill="#fff"
  />
</svg>
