<svg width="28" height="28" viewBox="0 0 28 28" fill="none" xmlns="http://www.w3.org/2000/svg">
<path d="M8.50094 10.8671C8.77645 10.8671 9.00187 10.6681 9.00187 10.4249C9.00187 9.42995 9.47776 8.45712 10.3293 7.79383C11.1809 7.10843 12.308 6.79889 13.4602 6.90944C15.2886 7.08632 16.7914 8.39079 16.9918 10.0269C17.1671 11.464 16.3656 12.857 14.9129 13.5424C13.4351 14.2499 12.5084 15.5986 12.5084 17.0578C12.5084 17.301 12.7338 17.5 13.0094 17.5C13.2849 17.5 13.5103 17.301 13.5103 17.0578C13.5103 15.9302 14.2366 14.8689 15.3888 14.3162C17.1922 13.4539 18.194 11.7294 17.9686 9.91636C17.7181 7.88227 15.8647 6.24615 13.5604 6.02505C12.1327 5.89239 10.705 6.29037 9.65309 7.13054C8.60112 7.97071 8 9.16463 8 10.4249C8 10.6681 8.22542 10.8671 8.50094 10.8671Z" fill="black"/>
<path d="M12.7878 19.9303C11.6626 19.9303 10.7529 20.84 10.7529 21.9651C10.7529 23.0903 11.6626 24 12.7878 24C13.9129 24 14.8226 23.0903 14.8226 21.9651C14.8226 20.84 13.9129 19.9303 12.7878 19.9303ZM12.7878 23.0424C12.1893 23.0424 11.7105 22.5636 11.7105 21.9651C11.7105 21.3666 12.1893 20.8879 12.7878 20.8879C13.3862 20.8879 13.865 21.3666 13.865 21.9651C13.865 22.5636 13.3862 23.0424 12.7878 23.0424Z" fill="black"/>
</svg>
