<svg width="28" height="28" viewBox="0 0 28 28" fill="none" xmlns="http://www.w3.org/2000/svg">
<path d="M12.9797 23.0074C12.6332 23.007 12.287 22.9872 11.9428 22.948C11.6967 22.9191 11.4708 22.7974 11.3113 22.6078C11.1518 22.4181 11.0705 22.1748 11.0841 21.9274C11.1005 21.6417 11.0281 21.3579 10.877 21.115C10.7259 20.872 10.5033 20.6817 10.2399 20.5701C9.97337 20.4724 9.68424 20.4545 9.40773 20.5184C9.13123 20.5824 8.87931 20.7254 8.68274 20.9301C8.51604 21.113 8.2861 21.2256 8.03945 21.2454C7.7928 21.2651 7.54787 21.1904 7.35424 21.0363C6.82722 20.611 6.3496 20.128 5.93033 19.5962C5.77967 19.4039 5.70694 19.1619 5.72662 18.9184C5.7463 18.6749 5.85695 18.4477 6.03654 18.2821C6.24685 18.0917 6.39401 17.8416 6.45835 17.5652C6.52269 17.2889 6.50113 16.9995 6.39657 16.7358C6.29484 16.4809 6.11863 16.2626 5.89095 16.1095C5.66326 15.9563 5.39468 15.8753 5.12027 15.8771H5.09687C4.63603 15.8771 4.10139 15.5459 4.04559 15.0148C3.9682 14.3348 3.9682 13.6482 4.04559 12.9681C4.071 12.7258 4.18764 12.5022 4.37184 12.3428C4.55605 12.1833 4.79401 12.0999 5.03746 12.1094C5.32572 12.1195 5.61062 12.0449 5.85696 11.8949C6.1033 11.7449 6.30028 11.5259 6.42357 11.2652C6.53216 11.0003 6.55584 10.7082 6.49135 10.4293C6.42687 10.1504 6.27738 9.89838 6.06354 9.70805C5.87999 9.53929 5.76801 9.30666 5.7506 9.05793C5.73319 8.80919 5.81168 8.56323 5.96993 8.37055C6.39768 7.83549 6.88643 7.35218 7.42624 6.93044C7.61972 6.78038 7.86247 6.7084 8.10648 6.72874C8.35048 6.74907 8.57797 6.86024 8.74394 7.04025C8.93985 7.24249 9.18988 7.38399 9.46411 7.44784C9.73834 7.51169 10.0252 7.49518 10.2903 7.40028C10.5517 7.291 10.7736 7.10461 10.9264 6.86596C11.0791 6.62731 11.1555 6.34776 11.1453 6.06458C11.1365 5.81933 11.2206 5.57979 11.3808 5.39389C11.541 5.20798 11.7655 5.08942 12.0094 5.06191C12.6825 4.98696 13.362 4.98938 14.0345 5.06911C14.2804 5.0972 14.5062 5.21813 14.6658 5.40719C14.8254 5.59624 14.9067 5.83913 14.8932 6.08618C14.8774 6.37176 14.9499 6.65528 15.101 6.89815C15.2521 7.14102 15.4743 7.33144 15.7375 7.44348C16.0039 7.54134 16.2931 7.55941 16.5697 7.49547C16.8462 7.43152 17.0981 7.28835 17.2946 7.08346C17.462 6.90116 17.6927 6.7896 17.9396 6.77153C18.1864 6.75347 18.4309 6.83026 18.6231 6.98625C19.152 7.41054 19.631 7.89369 20.0506 8.42636C20.2011 8.6194 20.2737 8.86189 20.254 9.10588C20.2344 9.34987 20.1239 9.57761 19.9444 9.74406C19.7362 9.9323 19.5905 10.1796 19.5266 10.4528C19.4627 10.7261 19.4837 11.0124 19.5869 11.2734C19.69 11.5344 19.8703 11.7577 20.1037 11.9135C20.3371 12.0694 20.6125 12.1503 20.8931 12.1454C21.3467 12.1454 21.8741 12.4767 21.9335 13.0077C22.0109 13.6878 22.0109 14.3744 21.9335 15.0545C21.9042 15.3009 21.7822 15.5269 21.5923 15.6867C21.4024 15.8465 21.1589 15.9281 20.9111 15.9149H20.8228C20.5438 15.9148 20.2712 15.9994 20.0412 16.1575C19.8112 16.3156 19.6346 16.5398 19.5347 16.8004C19.4349 17.061 19.4164 17.3458 19.4819 17.6171C19.5473 17.8884 19.6935 18.1335 19.9012 18.3199C20.0836 18.486 20.1963 18.7149 20.2167 18.9607C20.237 19.2066 20.1635 19.451 20.011 19.6448C19.5823 20.179 19.0937 20.6623 18.5547 21.0849C18.3624 21.2354 18.1203 21.3077 17.877 21.2874C17.6336 21.267 17.407 21.1555 17.2424 20.9751C17.0458 20.7727 16.7951 20.6312 16.5203 20.5674C16.2455 20.5035 15.9581 20.5201 15.6925 20.6151C15.4313 20.7237 15.2095 20.9094 15.0567 21.1475C14.9039 21.3855 14.8274 21.6645 14.8374 21.9472C14.8457 22.1919 14.7613 22.4308 14.6011 22.616C14.4409 22.8012 14.2167 22.9192 13.9733 22.9462C13.6434 22.9843 13.3117 23.0047 12.9797 23.0074ZM12.0796 21.9598C12.6628 22.0248 13.2515 22.0248 13.8347 21.9598C13.8217 21.4771 13.9555 21.0018 14.2185 20.5968C14.4814 20.1918 14.8611 19.8762 15.3072 19.6916C15.7583 19.5187 16.2504 19.4824 16.722 19.5874C17.1935 19.6924 17.6237 19.934 17.9588 20.282C18.4238 19.9142 18.8464 19.4958 19.2189 19.0345C18.8601 18.7039 18.6117 18.271 18.5074 17.7944C18.4031 17.3178 18.4479 16.8206 18.6357 16.3704C18.8195 15.9387 19.1255 15.5703 19.516 15.3102C19.9065 15.0502 20.3645 14.91 20.8336 14.9068H20.848H20.9471C21.0104 14.3247 21.0104 13.7374 20.9471 13.1553C20.9302 13.1442 20.9112 13.1368 20.8913 13.1337C20.4117 13.1388 19.9418 12.9986 19.5434 12.7315C19.1451 12.4644 18.837 12.0829 18.6597 11.6373C18.4824 11.1917 18.4442 10.7028 18.5501 10.235C18.656 9.76727 18.9011 9.34255 19.2531 9.0168C18.8931 8.55916 18.4832 8.14316 18.0308 7.77651C17.6948 8.12721 17.262 8.36996 16.7876 8.47383C16.3131 8.5777 15.8184 8.53799 15.3666 8.35975C14.9158 8.17077 14.5339 7.84794 14.2725 7.43489C14.0111 7.02185 13.8828 6.5385 13.9049 6.05018C13.3217 5.98516 12.733 5.98516 12.1498 6.05018C12.1618 6.53266 12.0276 7.00747 11.7648 7.41228C11.502 7.81708 11.1229 8.13293 10.6773 8.31835C10.227 8.49097 9.73588 8.52737 9.26506 8.42302C8.79424 8.31868 8.36449 8.0782 8.02929 7.7315C7.56432 8.09935 7.14169 8.51775 6.76919 8.979C7.1274 9.31078 7.37534 9.74435 7.47962 10.2213C7.5839 10.6983 7.53951 11.1958 7.35244 11.6468C7.1541 12.091 6.82883 12.4666 6.41755 12.7263C6.00628 12.9861 5.52737 13.1184 5.04106 13.1067C4.97772 13.6876 4.97772 14.2737 5.04106 14.8546C5.06152 14.8671 5.08411 14.8756 5.10767 14.8798C5.57988 14.8755 6.04252 15.013 6.43568 15.2746C6.82884 15.5361 7.13442 15.9097 7.31283 16.3469C7.49466 16.795 7.53626 17.2876 7.43212 17.7598C7.32798 18.2319 7.08301 18.6614 6.72959 18.9913C7.09309 19.4522 7.50733 19.8707 7.96448 20.2388C8.29968 19.8869 8.73251 19.6433 9.20729 19.5393C9.68208 19.4354 10.1771 19.4759 10.6287 19.6556C11.0786 19.8437 11.46 20.1653 11.7214 20.5771C11.9828 20.9888 12.1116 21.4708 12.0904 21.958L12.0796 21.9598ZM13.0049 17.3568C12.3454 17.3572 11.7007 17.162 11.1522 16.7958C10.6037 16.4297 10.1761 15.9092 9.9235 15.3C9.67089 14.6909 9.60462 14.0205 9.73305 13.3737C9.86148 12.7269 10.1789 12.1327 10.645 11.6662C11.1112 11.1998 11.7052 10.8821 12.352 10.7533C12.9987 10.6245 13.6692 10.6905 14.2785 10.9427C14.8877 11.195 15.4085 11.6223 15.7749 12.1706C16.1413 12.7189 16.3369 13.3635 16.3369 14.023C16.3364 14.9067 15.9853 15.7541 15.3606 16.3792C14.7358 17.0043 13.8886 17.3559 13.0049 17.3568ZM13.0049 11.6864C12.542 11.6864 12.0896 11.8236 11.7047 12.0808C11.3199 12.3379 11.0199 12.7034 10.8428 13.131C10.6657 13.5586 10.6194 14.0292 10.7097 14.4831C10.7999 14.9371 11.0228 15.354 11.3501 15.6813C11.6774 16.0086 12.0944 16.2315 12.5483 16.3218C13.0023 16.4121 13.4728 16.3657 13.9004 16.1886C14.328 16.0115 14.6935 15.7115 14.9506 15.3267C15.2078 14.9419 15.345 14.4894 15.345 14.0266C15.3453 13.7191 15.2849 13.4146 15.1674 13.1305C15.0499 12.8463 14.8776 12.5882 14.6602 12.3707C14.4429 12.1532 14.1849 11.9806 13.9008 11.8629C13.6168 11.7452 13.3123 11.6846 13.0049 11.6846V11.6864Z" fill="#31363B"/>
</svg>
